<?xml version="1.0" standalone="no"?><!DOCTYPE svg PUBLIC "-//W3C//DTD SVG 1.1//EN" "http://www.w3.org/Graphics/SVG/1.1/DTD/svg11.dtd"><svg t="1480607004561" class="icon" style="" viewBox="0 0 1024 1024" version="1.1" xmlns="http://www.w3.org/2000/svg" p-id="3104" xmlns:xlink="http://www.w3.org/1999/xlink" width="200" height="200"><defs><style type="text/css"></style></defs><path d="M467.2 358.4l25.6 0c12.8 6.4 19.2 12.8 19.2 19.2L512 384c0 0-12.8 6.4-32 6.4-6.4 0-32-6.4-83.2-19.2-83.2 19.2-147.2 32-192 51.2L115.2 473.6 89.6 480 83.2 480C70.4 473.6 64 467.2 64 454.4 64 448 76.8 441.6 83.2 441.6l12.8 0 6.4 0C249.6 384 371.2 358.4 467.2 358.4zM211.2 537.6c12.8 0 25.6 25.6 32 70.4l6.4 12.8 44.8-19.2 6.4 0c6.4 6.4 12.8 12.8 12.8 19.2 0 12.8-19.2 19.2-64 25.6L243.2 646.4c-6.4 32-12.8 102.4-19.2 204.8-6.4 38.4-12.8 70.4-25.6 96L192 953.6 179.2 953.6c-6.4 0-12.8-12.8-19.2-25.6l0-6.4c12.8-96 25.6-198.4 38.4-313.6L192 576 192 569.6C192 544 198.4 537.6 211.2 537.6zM326.4 64c51.2 19.2 83.2 38.4 89.6 51.2C422.4 121.6 422.4 128 422.4 134.4l0 6.4c0 6.4-6.4 19.2-12.8 38.4l12.8 6.4 51.2-6.4 19.2 0c6.4 0 12.8 6.4 19.2 12.8L512 192c0 6.4-12.8 12.8-19.2 12.8L467.2 204.8c-12.8 0-25.6 0-32-6.4-25.6 0-96 12.8-224 44.8L211.2 243.2C198.4 230.4 198.4 224 198.4 224L198.4 217.6c83.2-12.8 128-19.2 140.8-25.6l6.4-12.8L345.6 172.8c0-12.8-12.8-32-32-57.6C307.2 108.8 307.2 102.4 307.2 89.6 307.2 83.2 313.6 70.4 326.4 64zM224 300.8l6.4 0c12.8 0 25.6 12.8 44.8 38.4l6.4 12.8 0 6.4c0 12.8-6.4 19.2-19.2 19.2-12.8 0-25.6-12.8-38.4-38.4L211.2 326.4C211.2 320 211.2 307.2 224 300.8zM332.8 704c0 19.2-12.8 32-44.8 44.8l-6.4 6.4c-12.8 0-19.2-6.4-25.6-12.8l0-6.4C275.2 710.4 294.4 704 332.8 704zM358.4 467.2C358.4 480 345.6 492.8 320 512 307.2 518.4 300.8 518.4 288 518.4L275.2 518.4C262.4 518.4 262.4 512 262.4 512L262.4 505.6c6.4-12.8 32-19.2 70.4-32L358.4 467.2zM377.6 454.4 377.6 454.4c19.2 0 32 12.8 51.2 32l0 70.4 0 160 0 12.8 0 19.2L428.8 768c0 25.6 0 57.6 6.4 96l6.4 38.4C422.4 940.8 403.2 960 390.4 960L384 960 371.2 960c-12.8-25.6-25.6-51.2-44.8-70.4l0-6.4c12.8 0 25.6-6.4 32-25.6 6.4 0 12.8-44.8 12.8-134.4L371.2 601.6 371.2 505.6c0-19.2-6.4-25.6-12.8-25.6L358.4 473.6C358.4 460.8 364.8 460.8 377.6 454.4zM428.8 243.2l6.4 0c19.2 0 32 6.4 38.4 25.6l0 6.4c-32 32-64 51.2-102.4 64L358.4 339.2 345.6 339.2c12.8-38.4 32-64 51.2-83.2C409.6 243.2 416 243.2 428.8 243.2zM544 480l6.4 0C563.2 480 576 492.8 582.4 512l0 19.2 0 6.4L576 640c0 25.6 6.4 38.4 19.2 44.8 57.6-12.8 102.4-25.6 134.4-25.6l6.4 0c6.4 6.4 6.4 12.8 6.4 19.2 0 19.2-38.4 32-108.8 32C595.2 704 576 716.8 576 723.2c0 19.2-6.4 38.4-6.4 57.6 0 51.2 25.6 83.2 70.4 96 19.2 6.4 38.4 6.4 57.6 6.4l19.2 0c64 0 128-12.8 192-38.4 0-19.2 6.4-32 12.8-32 6.4 0 19.2 12.8 38.4 44.8l0 6.4c-12.8 25.6-44.8 51.2-89.6 64-25.6 6.4-76.8 19.2-160 25.6-64-12.8-115.2-25.6-147.2-51.2-25.6-19.2-44.8-32-44.8-44.8L512 844.8C518.4 608 531.2 486.4 544 480zM787.2 307.2 787.2 307.2c19.2 0 25.6 6.4 25.6 19.2l0 6.4c0 19.2-12.8 44.8-38.4 89.6C768 428.8 761.6 448 761.6 460.8l0 6.4c-6.4 12.8-51.2 19.2-128 19.2L608 492.8 608 486.4c12.8-12.8 32-25.6 70.4-38.4 19.2 0 38.4-32 51.2-89.6 0 0 6.4 0 6.4-6.4l6.4-6.4-6.4 0-12.8-6.4c-6.4 0-25.6 12.8-64 32C640 384 633.6 384 620.8 384 601.6 377.6 588.8 371.2 588.8 358.4c12.8-6.4 32-12.8 70.4-19.2 19.2 0 38.4-6.4 64-12.8l12.8 0C755.2 313.6 768 307.2 787.2 307.2zM716.8 544 716.8 544c12.8 0 25.6 0 32 6.4C736 576 704 588.8 652.8 588.8L640 588.8 595.2 582.4 595.2 582.4C640 556.8 678.4 544 716.8 544zM627.2 115.2c12.8 0 25.6 6.4 44.8 19.2l0 38.4c0 51.2-12.8 96-32 134.4C627.2 320 620.8 320 620.8 320 608 307.2 608 288 608 268.8L608 256l6.4-115.2L614.4 115.2 627.2 115.2zM704 755.2l12.8 0c6.4 0 12.8 0 12.8 6.4l0 6.4c0 12.8-25.6 25.6-83.2 44.8l-25.6 6.4c-12.8 0-19.2-6.4-19.2-6.4 0-19.2 25.6-32 83.2-38.4L704 755.2zM774.4 179.2l12.8 0 12.8 0 0 6.4c0 19.2-12.8 32-44.8 44.8l-19.2 6.4c-19.2 0-38.4-6.4-51.2-19.2C704 185.6 736 179.2 774.4 179.2z" p-id="3105" fill="#2c2c2c"></path></svg>